HIERARCHY
ROOT hip
{
  OFFSET 0 0 0
  CHANNELS 6 Xposition Yposition Zposition Zrotation Yrotation Xrotation
  JOINT abdomen
  {
    OFFSET 0 20.6881 -0.73152
    CHANNELS 3 Zrotation Xrotation Yrotation
    JOINT chest
    {
      OFFSET 0 11.7043 -0.48768
      CHANNELS 3 Zrotation Xrotation Yrotation
      JOINT neck
      {
        OFFSET 0 22.1894 -2.19456
        CHANNELS 3 Zrotation Xrotation Yrotation
        JOINT head
        {
          OFFSET -0.24384 7.07133 1.2192
          CHANNELS 3 Zrotation Xrotation Yrotation
          JOINT leftEye
          {
            OFFSET 4.14528 8.04674 8.04672
            CHANNELS 3 Zrotation Xrotation Yrotation
            End Site
            {
              OFFSET 1 0 0
            }
          }
          JOINT rightEye
          {
            OFFSET -3.6576 8.04674 8.04672
            CHANNELS 3 Zrotation Xrotation Yrotation
            End Site
            {
              OFFSET 1 0 0
            }
          }
        }
      }
      JOINT rCollar
      {
        OFFSET -2.68224 19.2634 -4.8768
        CHANNELS 3 Zrotation Xrotation Yrotation
        JOINT rShldr
        {
          OFFSET -8.77824 -1.95073 1.46304
          CHANNELS 3 Zrotation Xrotation Yrotation
          JOINT rForeArm
          {
            OFFSET -28.1742 -1.7115 0.48768
            CHANNELS 3 Zrotation Xrotation Yrotation
            JOINT rHand
            {
              OFFSET -22.5879 0.773209 7.07136
              CHANNELS 3 Zrotation Xrotation Yrotation
              JOINT rThumb1
              {
                OFFSET -1.2192 -0.487915 3.41376
                CHANNELS 3 Zrotation Xrotation Yrotation
                JOINT rThumb2
                {
                  OFFSET -3.37035 -0.52449 3.41376
                  CHANNELS 3 Zrotation Xrotation Yrotation
                  End Site
                  {
                    OFFSET -1.78271 -1.18214 1.43049
                  }
                }
              }
              JOINT rIndex1
              {
                OFFSET -7.75947 0.938293 5.60832
                CHANNELS 3 Zrotation Xrotation Yrotation
                JOINT rIndex2
                {
                  OFFSET -2.54057 -0.884171 1.56538
                  CHANNELS 3 Zrotation Xrotation Yrotation
                  End Site
                  {
                    OFFSET -1.62519 -0.234802 1.16502
                  }
                }
              }
              JOINT rMid1
              {
                OFFSET -8.24714 1.18213 3.41376
                CHANNELS 3 Zrotation Xrotation Yrotation
                JOINT rMid2
                {
                  OFFSET -3.10165 -0.590103 1.0647
                  CHANNELS 3 Zrotation Xrotation Yrotation
                  End Site
                  {
                    OFFSET -2.48547 -0.328903 0.83742
                  }
                }
              }
              JOINT rRing1
              {
                OFFSET -8.82822 0.546677 1.51678
                CHANNELS 3 Zrotation Xrotation Yrotation
                JOINT rRing2
                {
                  OFFSET -2.60934 -0.819778 -0.0198488
                  CHANNELS 3 Zrotation Xrotation Yrotation
                  End Site
                  {
                    OFFSET -2.33842 -0.294052 0.168128
                  }
                }
              }
              JOINT rPinky1
              {
                OFFSET -8.27202 -0.0477905 -0.4584
                CHANNELS 3 Zrotation Xrotation Yrotation
                JOINT rPinky2
                {
                  OFFSET -1.82734 -0.647385 -0.700984
                  CHANNELS 3 Zrotation Xrotation Yrotation
                  End Site
                  {
                    OFFSET -1.69225 -0.51767 -0.607171
                  }
                }
              }
            }
          }
        }
      }
      JOINT lCollar
      {
        OFFSET 2.68224 19.2634 -4.8768
        CHANNELS 3 Zrotation Xrotation Yrotation
        JOINT lShldr
        {
          OFFSET 8.77824 -1.95073 1.46304
          CHANNELS 3 Zrotation Xrotation Yrotation
          JOINT lForeArm
          {
            OFFSET 28.1742 -1.7115 0.48768
            CHANNELS 3 Zrotation Xrotation Yrotation
            JOINT lHand
            {
              OFFSET 22.5879 0.773209 7.07136
              CHANNELS 3 Zrotation Xrotation Yrotation
              JOINT lThumb1
              {
                OFFSET 1.2192 -0.487915 3.41376
                CHANNELS 3 Zrotation Xrotation Yrotation
                JOINT lThumb2
                {
                  OFFSET 3.37035 -0.52449 3.41376
                  CHANNELS 3 Zrotation Xrotation Yrotation
                  End Site
                  {
                    OFFSET 1.78271 -1.18214 1.43049
                  }
                }
              }
              JOINT lIndex1
              {
                OFFSET 7.75947 0.938293 5.60832
                CHANNELS 3 Zrotation Xrotation Yrotation
                JOINT lIndex2
                {
                  OFFSET 2.54057 -0.884171 1.56538
                  CHANNELS 3 Zrotation Xrotation Yrotation
                  End Site
                  {
                    OFFSET 1.62519 -0.234802 1.16502
                  }
                }
              }
              JOINT lMid1
              {
                OFFSET 8.24714 1.18213 3.41376
                CHANNELS 3 Zrotation Xrotation Yrotation
                JOINT lMid2
                {
                  OFFSET 3.10165 -0.590103 1.0647
                  CHANNELS 3 Zrotation Xrotation Yrotation
                  End Site
                  {
                    OFFSET 2.48547 -0.328903 0.83742
                  }
                }
              }
              JOINT lRing1
              {
                OFFSET 8.82822 0.546677 1.51678
                CHANNELS 3 Zrotation Xrotation Yrotation
                JOINT lRing2
                {
                  OFFSET 2.60934 -0.819778 -0.0198488
                  CHANNELS 3 Zrotation Xrotation Yrotation
                  End Site
                  {
                    OFFSET 2.33842 -0.294052 0.168128
                  }
                }
              }
              JOINT lPinky1
              {
                OFFSET 8.27202 -0.0477905 -0.4584
                CHANNELS 3 Zrotation Xrotation Yrotation
                JOINT lPinky2
                {
                  OFFSET 1.82734 -0.647385 -0.700984
                  CHANNELS 3 Zrotation Xrotation Yrotation
                  End Site
                  {
                    OFFSET 1.69225 -0.51767 -0.607171
                  }
                }
              }
            }
          }
        }
      }
    }
  }
  JOINT rButtock
  {
    OFFSET -8.77824 4.35084 1.2192
    CHANNELS 3 Zrotation Xrotation Yrotation
    JOINT rThigh
    {
      OFFSET 0 -1.70687 -2.19456
      CHANNELS 3 Zrotation Xrotation Yrotation
      JOINT rShin
      {
        OFFSET 0 -36.8199 0.73152
        CHANNELS 3 Zrotation Xrotation Yrotation
        JOINT rFoot
        {
          OFFSET 0.73152 -45.1104 -5.12064
          CHANNELS 3 Zrotation Xrotation Yrotation
          End Site
          {
            OFFSET -1.1221 -3.69964 12.103
          }
        }
      }
    }
  }
  JOINT lButtock
  {
    OFFSET 8.77824 4.35084 1.2192
    CHANNELS 3 Zrotation Xrotation Yrotation
    JOINT lThigh
    {
      OFFSET 0 -1.70687 -2.19456
      CHANNELS 3 Zrotation Xrotation Yrotation
      JOINT lShin
      {
        OFFSET 0 -36.8199 0.73152
        CHANNELS 3 Zrotation Xrotation Yrotation
        JOINT lFoot
        {
          OFFSET -0.73152 -45.1104 -5.12064
          CHANNELS 3 Zrotation Xrotation Yrotation
          End Site
          {
            OFFSET 1.1221 -3.69964 12.103
          }
        }
      }
    }
  }
}
MOTION
Frames:	8
Frame Time:	0.03333
0.0 0.0 0.0 0.0 0.0 0.0 0.0 0.0 0.0 0.0 0.0 0.0 0.0 0.0 0.0 0.0 0.0 0.0 0.0 0.0 0.0 0.0 0.0 0.0 0.0 0.0 0.0 0.0 0.0 0.0 0.0 0.0 0.0 0.0 0.0 0.0 0.0 0.0 0.0 0.0 0.0 0.0 0.0 0.0 0.0 0.0 0.0 0.0 0.0 0.0 0.0 0.0 0.0 0.0 0.0 0.0 0.0 0.0 0.0 0.0 0.0 0.0 0.0 0.0 0.0 0.0 0.0 0.0 0.0 0.0 0.0 0.0 0.0 0.0 0.0 0.0 0.0 0.0 0.0 0.0 0.0 0.0 0.0 0.0 0.0 0.0 0.0 0.0 0.0 0.0 0.0 0.0 0.0 0.0 0.0 0.0 0.0 0.0 0.0 0.0 0.0 0.0 0.0 0.0 0.0 0.0 0.0 0.0 0.0 0.0 0.0 0.0 0.0 0.0 0.0 0.0 0.0 0.0 0.0 0.0 0.0 0.0 0.0 0.0 0.0 0.0 0.0 0.0 0.0 0.0 0.0 0.0
-0.19 64.1061 -0.0007 178.879153 83.653915 178.596395 -0.52763 1.101005 38.936063 7.025073 5.659428 -57.092165 4.978305 -25.081771 20.527551 -43.928647 26.705398 -90.571537 178.041662 -0.236552 13.77375 -20.264857 -5.954232 32.45138 -79.382079 -9.42467 159.37432 19.509533 -43.819017 13.679924 19.726175 -60.782297 25.072494 -87.9628 -73.705854 -45.393917 174.558577 12.231287 28.726243 -12.613848 43.317243 167.858978 -126.736175 -29.834661 -169.243601 16.447378 17.691663 9.298193 -57.573161 -29.458589 -109.128132 13.986885 66.135575 27.42778 -69.991411 -58.387459 -104.843882 -149.384917 30.771989 125.227021 -150.699304 41.027595 -166.974129 44.200529 71.38808 26.153573 95.139704 -32.937762 -158.975358 2.803679 5.722895 -8.516478 114.113882 -77.539556 -21.273302 173.96734 40.524246 -44.576149 177.009709 21.577179 -59.62704 151.016652 -49.327449 -64.771707 61.283563 23.16963 -96.023076 -95.446109 -84.921627 104.803333 165.604358 -55.074125 123.2491 98.019985 -57.831312 12.69179 92.668144 20.747493 94.417998 65.33713 -72.744376 105.143141 44.513655 14.630286 82.44365 -14.188548 -23.611806 28.905812 64.224336 -5.351023 101.720263 28.301956 61.215727 54.997992 4.304788 -3.799321 76.946533 -70.217973 -10.86663 93.441721 36.46257 -17.495697 78.55644 4.216572 38.510035 173.489022 1.694112 -2.556439 69.924689 -68.453796 15.85283 94.300888
0.21150000000000002 66.7611 -1.4483 3.608482 56.167083 5.308047 -5.452632 8.973256 -135.921277 -0.351877 3.665942 151.306098 17.206238 10.598471 92.356095 -39.378097 13.823826 -95.366176 8.846709 -1.454791 -18.641297 13.34309 5.984855 48.161011 -127.74027 -47.818617 -174.442199 176.847112 40.937285 -167.709673 -177.09742 10.202777 66.332706 170.621528 -8.109744 138.660057 -21.933909 14.431435 32.658009 -78.19726 -32.389537 -160.633726 9.56096 50.057146 8.201583 -130.991924 -0.727478 -151.006933 21.5862 -29.283454 6.910082 -26.047599 68.541262 -7.81018 -128.156224 -8.221541 178.717773 -169.633452 -44.370434 131.490495 -109.835329 -27.42881 -97.501618 -91.239461 -29.443777 -57.696757 -6.179335 1.149827 -3.097311 -63.125033 8.808833 -9.254575 2.46092 -5.639887 -92.255823 4.310207 1.564426 15.173701 2.086504 19.376547 -0.500868 85.531031 13.411675 -18.531657 10.858574 11.501081 -8.674514 4.28113 -12.551672 -37.714491 164.788947 2.638265 -115.190709 -45.5679 -49.985212 -38.864939 -62.857647 -71.051619 -41.005807 -161.530484 -11.60381 143.842178 104.729701 56.230337 -145.26894 -150.870367 -59.41695 -103.371358 22.279904 -1.950084 28.437482 -47.247639 -0.543868 -90.465503 -41.222573 32.568088 -71.955346 -98.34251 75.175778 177.43713 -28.067517 -21.098279 -46.927892 40.314936 16.155971 76.861006 41.827874 40.225479 81.562269 -118.607574 -20.616534 126.889726
1.3552 57.500099999999996 -3.7076 14.917271 42.326146 16.94398 -18.607426 13.806486 -15.9952 14.400092 -5.932213 36.128861 -5.256345 15.969729 -44.37624 26.327038 -7.803632 53.047442 -21.26497 5.063075 -26.504321 8.77754 7.920881 84.105653 -149.158992 -1.680578 170.145917 179.964757 -11.002357 -178.25592 -11.185789 -10.152814 77.935186 -2.8759 -0.468601 -7.177357 179.964615 -5.523882 81.0881 142.569061 -15.838262 107.494685 -120.719189 10.523355 102.078619 173.929798 -74.923972 79.094755 -21.655723 37.752678 31.803149 70.695932 79.946458 -69.554056 -127.830809 38.490117 143.639279 -134.720775 -11.340144 179.261982 -48.833084 -62.47829 -37.105664 -131.982758 -7.370018 -93.512427 -16.081902 -56.579606 -1.731985 -79.442749 46.347176 59.715751 -178.804868 39.124432 -58.817425 -173.020419 9.542417 -146.336207 176.032609 -18.997168 -89.67583 -47.947419 -16.278969 -3.920546 14.037284 -1.222423 11.892312 -12.922102 -30.232142 -74.521641 -25.342794 -20.801282 -58.823089 18.835207 47.641752 57.939872 -105.237246 -27.785108 -109.466422 -98.913336 -57.681077 131.333361 -24.269795 65.132377 -7.027793 -13.666635 22.651097 171.702162 -58.423069 -9.018026 -10.243146 16.511241 -19.967108 44.053022 64.7624 20.454853 -128.959677 -43.473242 -52.92951 43.088786 7.807054 -3.716914 -8.539054 54.011819 -39.101413 -54.546469 -90.653789 -27.633838 -17.04988 1.381113 53.65227 82.536605
2.9045 59.948800000000006 -5.4213 20.030844 24.595479 21.818999 -17.823718 13.416016 23.387995 -0.08863 -12.712852 2.302649 -2.853754 25.860386 -110.01269 35.493093 4.761249 108.886268 2.238206 2.131491 87.201374 -161.720887 14.448745 76.470231 7.205072 33.743482 -5.247608 37.796435 -28.534239 38.78495 -170.5336 -13.432215 63.680865 178.911833 -23.945351 144.51947 -169.238663 1.76772 101.270718 -69.304555 -26.195978 -42.497829 -155.582592 -7.367698 123.340891 1.300909 1.09421 -14.197138 -86.048633 59.863577 108.401903 30.617315 46.015664 -33.213245 -81.458075 51.875247 80.421206 -24.434942 -61.002961 -90.45129 -131.026279 18.23689 -166.964978 114.339325 -82.034489 94.248777 -21.20911 -44.654551 -17.993285 17.879227 -34.683292 72.187738 -174.219114 -36.260057 -62.851599 10.056896 -87.74101 14.329378 50.447349 3.239186 22.725234 -98.351058 -15.169382 80.106987 98.248909 40.084765 -48.629067 -177.293785 68.224987 125.962814 70.41825 36.785783 61.478335 43.371771 -4.342598 -139.600869 -170.253688 -22.513041 -174.033134 136.702089 31.551044 54.191728 -107.423335 -37.99264 -61.153417 153.239798 12.254686 -67.0049 33.108381 37.46029 80.858077 -107.812155 49.620783 59.817645 54.637126 -24.633087 -115.953323 162.980439 -26.970611 -3.872251 -7.432795 0.713634 -7.345514 95.56091 -36.684288 -175.918601 102.511966 -30.456819 -7.237016 -159.160133 33.048371 73.984074
4.6026 65.33290000000001 -6.1474 24.65339 15.557867 25.917271 -18.747444 17.465085 12.391194 0.237176 -16.046108 13.242019 -14.631983 23.778344 -72.801995 37.848435 -20.491419 71.938313 138.711788 -22.978543 56.693364 -130.029775 27.160234 54.802167 -8.758006 -53.351434 -37.341559 91.878169 -88.169511 45.469618 18.156453 -14.746626 -115.735889 -177.542661 -8.250558 148.81116 -7.318318 23.077386 -6.646995 -138.800935 -24.187746 66.358308 -166.715184 -27.58731 138.952419 174.094762 -31.37419 114.673431 -104.544454 71.276053 134.833588 -24.678159 -22.97238 -58.433502 -67.025024 52.025031 71.74231 134.309026 55.726092 -41.465328 -80.94421 -56.612909 -95.294782 178.081847 -13.8829 -168.44514 28.254464 35.369889 -33.379177 104.039131 -17.381865 -150.126574 -173.497811 -71.224251 -67.105877 -148.280048 -84.473373 -141.362564 -179.577457 51.114461 -68.729126 -105.174412 -55.12509 160.415244 92.136891 27.180215 -40.057573 33.16378 -48.546803 135.485546 18.551728 58.518326 107.780605 -177.827962 -11.105039 -32.455909 -45.494837 -65.730268 -45.046817 51.003054 34.316059 152.399435 -106.519568 -52.321628 -61.785637 54.072502 -56.515896 -45.775068 16.981107 5.954709 90.870913 -58.578297 51.784665 0.489129 63.3582 2.985744 101.83415 53.891637 4.183881 -178.702909 2.146912 -0.058002 12.126061 103.141413 -48.152006 -155.913831 104.240137 -31.030124 -143.938983 -56.141152 -57.836184 19.160274
6.4778 68.9126 -5.4379 29.699973 11.620888 29.095929 -20.601368 19.832583 -174.079402 -2.830175 16.359565 -165.731586 -9.716441 15.688539 36.065993 -38.055505 -20.593974 -48.689604 121.16902 -27.271219 46.559028 -121.244304 26.023663 44.634541 -147.309433 6.147963 171.971997 88.401724 76.954123 -101.289805 -161.809469 59.522595 -104.858311 -11.896815 18.249237 8.630962 -169.208425 -40.86576 98.697099 -135.532107 -51.205156 125.176743 -166.362056 2.310845 130.6038 -70.240861 22.911423 47.237508 128.172719 87.455638 -100.936087 -5.070685 51.588217 -55.026158 -0.054485 -54.005487 -1.443356 -71.842734 7.842094 -42.753718 2.407826 -7.740454 -18.511175 -21.476419 15.779908 0.435139 45.762458 57.272709 -46.545031 106.852474 -5.991823 -128.127674 34.455805 83.616148 -100.755655 38.230409 49.707076 -26.350338 176.30822 36.142413 -42.363708 -71.930174 -37.448392 -162.250938 -134.926154 -31.138497 -84.971033 144.991486 -19.299508 -50.331086 -176.902841 81.972127 -54.215894 -155.774769 10.140783 -51.089086 -61.284289 -74.487764 -40.052107 53.614083 32.585983 112.494104 -41.018389 15.203682 -58.617199 145.309966 7.912454 63.976245 -88.476857 -6.083087 -96.036726 28.695437 37.510337 39.806757 20.49975 54.683316 160.305887 -18.377778 9.720466 175.902402 -81.031578 26.107356 -42.007017 -174.063174 -11.477352 144.150603 114.097451 -31.765276 26.874411 161.067018 33.614073 116.274146
8.4241 72.8962 -3.7958 33.191473 15.419084 28.816867 -14.2027 31.888374 -100.105041 24.151133 2.70141 112.331884 -7.819132 16.2065 41.300629 -34.704309 -24.291981 -36.32193 51.994054 17.41602 34.872431 -145.069931 15.497896 46.776574 6.55239 6.381518 -2.111823 -111.178661 35.123715 134.329072 -142.448393 -68.624927 -56.101896 -8.354867 15.278921 8.121133 -3.85588 44.993388 5.835759 172.309107 -36.776735 136.764719 -77.193024 50.495023 39.027486 3.466197 49.681762 38.747505 -39.770679 -62.828288 -99.773261 137.980402 -46.083399 51.884555 3.236879 -36.100613 3.172237 104.345707 22.874087 -111.915468 -120.535086 -10.080664 -91.337104 -122.859046 8.959278 -135.372106 0.243474 -43.609024 12.154219 -100.985473 41.323818 65.067366 -135.691557 74.904158 -127.303134 -175.851102 -32.210231 -143.050533 -5.763481 -36.048835 -58.67614 113.182231 32.849789 162.635845 -16.178241 -26.889229 -38.209548 -175.462461 26.993928 -112.123883 -16.964714 -46.489526 -69.687107 34.86631 -11.191238 62.555152 126.620761 8.883206 -151.985818 -80.46587 -6.38217 -100.408116 60.354427 36.154805 -149.805885 65.446705 -30.726588 141.1349 25.093519 11.216668 87.634578 -76.639698 53.910624 176.339936 -51.709844 -10.129974 -116.461048 -106.21742 -14.031041 157.854455 74.123911 49.182322 47.217055 -71.04292 -80.182266 -24.990126 -146.23767 73.115785 62.631072 95.666925 42.537632 -7.62461
